<svg xmlns="http://www.w3.org/2000/svg" version="1.1" xmlns:xlink="http://www.w3.org/1999/xlink" xmlns:svgjs="http://svgjs.com/svgjs" width="100px" height="100px"><svg width="100px" height="100px" viewBox="0 0 100 100" version="1.1" xmlns="http://www.w3.org/2000/svg" xmlns:xlink="http://www.w3.org/1999/xlink">
  <path id="SvgjsPath1000" fill="#000000" d="M51.4623656,97 C62.2016129,97 70.6666667,93.3360215 76.8575269,82.9758065 L77.1102151,82.9758065 L77.7419355,95.1048387 L91.5134409,95.1048387 L91.5134409,47.094086 L53.483871,47.094086 L53.483871,61.2446237 L75.2150538,61.2446237 L75.2150538,61.75 C75.2150538,71.7311828 65.9919355,82.2177419 51.9677419,82.2177419 C36.4274194,82.2177419 26.6989247,68.6989247 26.6989247,50.2526882 C26.6989247,32.311828 35.1639785,18.1612903 52.2204301,18.1612903 C63.844086,18.1612903 70.5403226,24.4784946 72.561828,33.1962366 L90.5026882,33.1962366 C87.5967742,15.5080645 74.5833333,3 51.8413978,3 C39.7123656,3 30.1102151,6.66397849 22.7822581,13.3602151 C13.3064516,22.077957 8,35.2177419 8,50.2526882 C8,63.8978495 12.2956989,75.5215054 19.75,83.8602151 C27.2043011,92.0725806 37.8172043,97 51.4623656,97 Z" fill-rule="evenodd" clip-rule="evenodd"></path>
</svg><style>@media (prefers-color-scheme: light) { :root { filter: none; } }
@media (prefers-color-scheme: dark) { :root { filter: invert(100%); } }
</style></svg>